<?xml version="1.0" encoding="utf-8"?>
<!-- Generator: Adobe Illustrator 16.0.0, SVG Export Plug-In . SVG Version: 6.00 Build 0)  -->
<!DOCTYPE svg PUBLIC "-//W3C//DTD SVG 1.1//EN" "http://www.w3.org/Graphics/SVG/1.1/DTD/svg11.dtd">
<svg version="1.1" id="Layer_1" xmlns="http://www.w3.org/2000/svg" xmlns:xlink="http://www.w3.org/1999/xlink" x="0px" y="0px"
	 width="248.93px" height="49.172px" viewBox="0 0 248.93 49.172" enable-background="new 0 0 248.93 49.172" xml:space="preserve">
<g>
	<rect x="40.798" y="1.333" fill="none" width="167.334" height="46.505"/>
	<g>
		<g>
			<g>
				<g>
					<path fill="#FFFFFF" d="M96.205,20.338h-3.741v-1.894h9.552v1.894h-3.743v12.2h-2.068V20.338z"/>
					<path fill="#FFFFFF" d="M101.219,22.504h1.951v1.063h0.041c0.644-0.792,1.486-1.188,2.529-1.188
						c0.779,0.013,1.46,0.27,2.042,0.77l-1.425,1.744c-0.413-0.336-0.841-0.504-1.284-0.504c-0.499,0-0.928,0.167-1.283,0.503
						c-0.4,0.329-0.607,0.861-0.619,1.597v6.049h-1.951V22.504L101.219,22.504z"/>
					<path fill="#FFFFFF" d="M113.094,31.648h-0.037c-0.181,0.341-0.461,0.593-0.842,0.754c-0.375,0.167-0.893,0.252-1.553,0.252
						c-1.086-0.013-1.922-0.309-2.508-0.89c-0.618-0.566-0.927-1.292-0.927-2.174c0-0.844,0.269-1.543,0.805-2.097
						c0.537-0.566,1.323-0.857,2.359-0.87h2.704v-1.058c0.013-0.887-0.651-1.317-1.994-1.292c-0.487,0-0.871,0.052-1.151,0.155
						c-0.293,0.124-0.524,0.331-0.693,0.622l-1.536-1.209c0.743-1,1.837-1.487,3.285-1.461c1.222-0.013,2.198,0.225,2.927,0.715
						c0.73,0.503,1.102,1.366,1.113,2.59v6.854h-1.952V31.648z M113.094,28.284h-2.343c-1.139,0.026-1.702,0.428-1.688,1.209
						c0,0.341,0.147,0.632,0.44,0.87c0.282,0.265,0.748,0.397,1.398,0.397c0.819,0.012,1.397-0.087,1.735-0.3
						c0.306-0.212,0.46-0.697,0.46-1.451L113.094,28.284L113.094,28.284z"/>
					<path fill="#FFFFFF" d="M115.932,22.504h2.067l2.283,7.032h0.037l2.272-7.032h2.076l-3.563,10.034h-1.609L115.932,22.504z"/>
					<path fill="#FFFFFF" d="M126.878,28.284c0,0.806,0.225,1.418,0.674,1.837c0.418,0.426,0.968,0.639,1.648,0.639
						c0.794,0,1.502-0.326,2.127-0.977l1.414,1.246c-0.992,1.096-2.159,1.637-3.5,1.624c-0.512,0-1.012-0.078-1.498-0.232
						c-0.242-0.084-0.479-0.196-0.71-0.338c-0.243-0.123-0.472-0.274-0.684-0.455c-0.412-0.374-0.745-0.896-1.002-1.565
						c-0.28-0.644-0.421-1.482-0.421-2.513c0-0.992,0.122-1.817,0.364-2.475c0.243-0.67,0.555-1.199,0.936-1.585
						c0.388-0.393,0.821-0.676,1.301-0.851c0.475-0.174,0.941-0.261,1.404-0.261c1.109,0.013,2.049,0.39,2.816,1.132
						c0.779,0.754,1.177,1.792,1.188,3.113v1.661H126.878z M130.988,26.623c-0.025-0.784-0.229-1.376-0.609-1.778
						c-0.375-0.382-0.857-0.572-1.445-0.572s-1.07,0.19-1.444,0.572c-0.369,0.401-0.573,0.994-0.609,1.778H130.988z"/>
					<path fill="#FFFFFF" d="M134.735,18.445h1.95v11.512c0,0.458,0.244,0.688,0.732,0.688h0.676v1.894h-0.87
						c-0.712,0-1.298-0.183-1.759-0.549c-0.487-0.372-0.729-0.998-0.729-1.877V18.445z"/>
					<path fill="#FFFFFF" d="M143.61,18.445h8.721v2.01h-6.653v4.168h5.679v1.893h-5.679v6.023h-2.067V18.445z"/>
					<path fill="#FFFFFF" d="M159.572,29.386h-5.177l-1.049,3.152h-2.189l4.961-14.093h1.732l4.962,14.093h-2.182L159.572,29.386z
						 M158.982,27.493l-1.976-6.165h-0.037l-1.976,6.165H158.982z"/>
					<path fill="#FFFFFF" d="M171.35,31.432c-0.806,0.789-1.879,1.196-3.22,1.222c-1.073-0.026-1.969-0.297-2.687-0.812
						c-0.73-0.497-1.26-1.07-1.591-1.721c-0.101-0.212-0.19-0.416-0.271-0.609c-0.075-0.199-0.138-0.451-0.187-0.754
						c-0.095-0.566-0.14-1.656-0.14-3.268c0-1.636,0.045-2.732,0.14-3.287c0.099-0.554,0.252-1.002,0.459-1.343
						c0.33-0.651,0.861-1.231,1.591-1.74c0.717-0.515,1.613-0.78,2.686-0.793c1.086,0.013,1.99,0.277,2.714,0.793
						c0.718,0.509,1.235,1.09,1.554,1.74c0.231,0.341,0.39,0.789,0.478,1.343c0.08,0.554,0.121,1.649,0.121,3.287
						c0,1.463-0.031,2.484-0.094,3.064c-0.081,0.58-0.216,1.031-0.402,1.353l1.803,1.478l-1.229,1.47L171.35,31.432z
						 M167.908,28.601l1.229-1.463l1.595,1.308c0.13-0.479,0.197-1.463,0.197-2.955c0-1.388-0.047-2.334-0.141-2.838
						c-0.101-0.479-0.285-0.869-0.553-1.172c-0.207-0.29-0.482-0.533-0.827-0.726c-0.361-0.188-0.79-0.288-1.284-0.3
						c-0.487,0.013-0.906,0.113-1.256,0.3c-0.357,0.193-0.645,0.436-0.863,0.726c-0.269,0.304-0.447,0.694-0.534,1.172
						c-0.1,0.503-0.149,1.45-0.149,2.837c0,1.388,0.05,2.328,0.149,2.818c0.087,0.492,0.266,0.889,0.534,1.192
						c0.219,0.291,0.507,0.526,0.863,0.707c0.35,0.212,0.769,0.319,1.256,0.319c0.638,0,1.147-0.165,1.528-0.494L167.908,28.601z"/>
				</g>
				<g>
					<path fill="#FFFFFF" d="M82.269,14.988c-4.221,0-7.642,3.422-7.642,7.643c0,5.419,7.235,11.554,7.642,11.554
						c0,0,7.643-6.133,7.643-11.554C89.912,18.41,86.49,14.988,82.269,14.988z M82.269,28.672c-3.411,0-6.177-2.766-6.177-6.177
						c0-3.412,2.765-6.178,6.177-6.178s6.177,2.766,6.177,6.178C88.446,25.907,85.681,28.672,82.269,28.672z"/>
					<path fill="#FFFFFF" d="M83.757,23.672c0.493-1.971-0.394-3.45-0.592-3.893c-0.197-0.444-0.443-1.971-0.197-2.217
						c0.246-0.247-0.147-0.591-0.147-0.591h-0.542H82.26h-0.542c0,0-0.395,0.345-0.148,0.591c0.247,0.247,0,1.773-0.197,2.217
						c-0.197,0.443-1.084,1.921-0.591,3.893c0.493,1.971,0.148,2.02-0.147,3.302c-0.295,1.281,1.626,1.331,1.626,1.331h0.018
						c0,0,1.922-0.05,1.627-1.331C83.609,25.692,83.265,25.644,83.757,23.672z"/>
				</g>
			</g>
		</g>
	</g>
</g>
</svg>
