<?xml version="1.0" encoding="utf-8"?>
<!-- Generator: Adobe Illustrator 16.0.0, SVG Export Plug-In . SVG Version: 6.00 Build 0)  -->
<!DOCTYPE svg PUBLIC "-//W3C//DTD SVG 1.1//EN" "http://www.w3.org/Graphics/SVG/1.1/DTD/svg11.dtd">
<svg version="1.1" id="Layer_1" xmlns="http://www.w3.org/2000/svg" xmlns:xlink="http://www.w3.org/1999/xlink" x="0px" y="0px"
	 width="248.93px" height="77.345px" viewBox="0 -19.655 248.93 77.345" enable-background="new 0 -19.655 248.93 77.345"
	 xml:space="preserve">
<g>
	<g>
		<g>
			<g>
				<path fill="#FFFFFF" d="M58.01,16.173h-8.938v-4.524h22.821v4.524h-8.943V45.32H58.01V16.173z"/>
				<path fill="#FFFFFF" d="M69.987,21.349h4.661v2.54h0.098c1.537-1.894,3.55-2.84,6.042-2.84c1.864,0.031,3.49,0.645,4.878,1.84
					l-3.404,4.165c-0.985-0.802-2.008-1.204-3.067-1.204c-1.193,0-2.217,0.401-3.067,1.203c-0.956,0.786-1.449,2.058-1.479,3.815
					V45.32h-4.661V21.349z"/>
				<path fill="#FFFFFF" d="M98.36,43.196h-0.089c-0.432,0.815-1.103,1.416-2.012,1.801c-0.896,0.399-2.132,0.601-3.711,0.601
					c-2.594-0.031-4.591-0.739-5.992-2.125c-1.476-1.354-2.213-3.086-2.213-5.195c0-2.017,0.641-3.687,1.922-5.011
					c1.282-1.354,3.16-2.047,5.635-2.078h6.461v-2.528c0.031-2.119-1.557-3.148-4.765-3.086c-1.163,0-2.08,0.124-2.75,0.37
					c-0.701,0.294-1.253,0.789-1.655,1.485l-3.669-2.89c1.773-2.39,4.389-3.553,7.846-3.491c2.92-0.031,5.252,0.539,6.994,1.709
					c1.743,1.201,2.631,3.264,2.66,6.188V45.32H98.36V43.196z M98.36,35.157h-5.601c-2.72,0.062-4.064,1.023-4.033,2.889
					c0,0.815,0.352,1.51,1.053,2.08c0.673,0.632,1.785,0.948,3.339,0.948c1.957,0.03,3.338-0.208,4.146-0.717
					c0.731-0.508,1.098-1.664,1.098-3.467L98.36,35.157L98.36,35.157z"/>
				<path fill="#FFFFFF" d="M105.141,21.349h4.939l5.453,16.8h0.089l5.43-16.8h4.961l-8.514,23.971h-3.845L105.141,21.349z"/>
				<path fill="#FFFFFF" d="M131.293,35.157c0,1.926,0.537,3.389,1.609,4.391c1,1.017,2.313,1.525,3.94,1.525
					c1.895,0,3.588-0.778,5.08-2.334l3.38,2.979c-2.37,2.616-5.158,3.909-8.363,3.878c-1.222,0-2.415-0.185-3.578-0.555
					c-0.58-0.2-1.146-0.469-1.698-0.809c-0.581-0.292-1.126-0.653-1.633-1.085c-0.983-0.893-1.781-2.14-2.393-3.74
					c-0.671-1.539-1.007-3.541-1.007-6.005c0-2.37,0.291-4.341,0.872-5.911c0.581-1.602,1.326-2.864,2.235-3.788
					c0.925-0.939,1.961-1.616,3.108-2.032c1.133-0.416,2.25-0.624,3.354-0.624c2.652,0.031,4.896,0.932,6.729,2.703
					c1.863,1.802,2.811,4.281,2.84,7.438v3.969H131.293z M141.112,31.188c-0.061-1.872-0.547-3.288-1.458-4.247
					c-0.896-0.913-2.048-1.368-3.451-1.368c-1.405,0-2.557,0.456-3.452,1.368c-0.883,0.959-1.368,2.375-1.457,4.247H141.112z"/>
				<path fill="#FFFFFF" d="M150.062,11.649h4.661v27.505c0,1.095,0.583,1.643,1.749,1.643h1.615v4.523h-2.079
					c-1.699,0-3.1-0.437-4.202-1.312c-1.163-0.889-1.744-2.384-1.744-4.485V11.649z"/>
				<path fill="#FFFFFF" d="M171.268,11.649h20.834v4.802h-15.896v9.958h13.568v4.521h-13.568v14.39h-4.938V11.649z"/>
				<path fill="#FFFFFF" d="M209.402,37.789h-12.368l-2.506,7.53h-5.232l11.854-33.67h4.139l11.854,33.67h-5.212L209.402,37.789z
					 M207.993,33.267l-4.72-14.729h-0.09l-4.719,14.729H207.993z"/>
				<path fill="#FFFFFF" d="M237.541,42.678c-1.924,1.885-4.487,2.857-7.692,2.919c-2.563-0.062-4.703-0.708-6.418-1.939
					c-1.743-1.187-3.011-2.557-3.801-4.111c-0.238-0.508-0.455-0.993-0.648-1.455c-0.179-0.477-0.328-1.078-0.446-1.802
					c-0.225-1.354-0.335-3.957-0.335-7.807c0-3.909,0.11-6.526,0.335-7.852c0.237-1.324,0.604-2.395,1.096-3.21
					c0.79-1.555,2.058-2.94,3.801-4.157c1.714-1.231,3.854-1.863,6.417-1.894c2.594,0.03,4.755,0.662,6.483,1.894
					c1.715,1.216,2.951,2.603,3.712,4.157c0.552,0.815,0.931,1.886,1.14,3.21c0.193,1.324,0.291,3.941,0.291,7.852
					c0,3.495-0.075,5.936-0.224,7.321c-0.193,1.386-0.516,2.463-0.961,3.233l4.307,3.532l-2.935,3.511L237.541,42.678z
					 M229.32,35.913l2.937-3.495l3.81,3.125c0.312-1.143,0.472-3.495,0.472-7.06c0-3.316-0.113-5.576-0.337-6.78
					c-0.239-1.143-0.681-2.075-1.321-2.801c-0.493-0.693-1.15-1.272-1.974-1.735c-0.865-0.448-1.889-0.688-3.068-0.717
					c-1.165,0.03-2.166,0.27-3.002,0.717c-0.853,0.463-1.539,1.042-2.062,1.735c-0.643,0.726-1.067,1.659-1.276,2.801
					c-0.238,1.203-0.358,3.463-0.358,6.779c0,3.317,0.12,5.562,0.358,6.734c0.209,1.173,0.635,2.122,1.276,2.847
					c0.522,0.694,1.21,1.257,2.062,1.689c0.836,0.509,1.837,0.764,3.002,0.764c1.522,0,2.74-0.394,3.651-1.181L229.32,35.913z"/>
			</g>
			<g>
				<path fill="#FFFFFF" d="M24.716,3.39c-10.084,0-18.26,8.175-18.26,18.26c0,12.948,17.288,27.604,18.26,27.604
					c0,0,18.26-14.654,18.26-27.604C42.975,11.565,34.8,3.39,24.716,3.39z M24.716,36.084c-8.15,0-14.759-6.607-14.759-14.757
					c0-8.15,6.607-14.759,14.759-14.759c8.15,0,14.757,6.607,14.757,14.759C39.473,29.478,32.866,36.084,24.716,36.084z"/>
				<path fill="#FFFFFF" d="M28.27,24.139c1.177-4.709-0.942-8.242-1.413-9.301c-0.471-1.06-1.06-4.709-0.471-5.298
					c0.588-0.589-0.354-1.413-0.354-1.413h-1.295h-0.044h-1.295c0,0-0.942,0.824-0.354,1.413c0.589,0.589,0,4.238-0.471,5.298
					c-0.471,1.059-2.59,4.591-1.413,9.301c1.178,4.71,0.354,4.826-0.353,7.888c-0.706,3.061,3.885,3.18,3.885,3.18h0.044
					c0,0,4.591-0.119,3.885-3.18C27.917,28.965,27.093,28.849,28.27,24.139z"/>
			</g>
		</g>
		<g>
			<g>
				<path fill-rule="evenodd" clip-rule="evenodd" fill="#FFFFFF" d="M150.538-11.912c0.228-0.796,0.142-1.336-0.228-1.592
					c-0.284-0.228-0.796-0.228-1.507,0c-1.563,0.654-3.156,2.076-4.777,4.237c-2.218,3.128-3.866,6.198-4.946,9.212l-0.114,0.171
					c-0.284,0.142-0.655,0.198-0.995,0.142c-0.085-0.057-0.113-0.113-0.113-0.199l0.426-1.648c0.113-0.683,0.027-1.251-0.284-1.678
					c-0.228-0.341-0.569-0.483-0.995-0.483c-1.251,0.085-2.53,0.967-3.839,2.729c-1.308,1.877-2.019,3.668-2.161,5.289
					c0,1.023,0.313,1.706,0.967,1.99c0.739,0.198,1.564-0.057,2.474-0.825c0.967-0.909,1.905-2.303,2.843-4.122l0.172-0.199h1.023
					c0.085,0,0.143,0.058,0.143,0.143c-0.285,1.251-0.428,1.933-0.428,2.047c-0.142,0.824-0.086,1.507,0.086,2.104
					c0.199,0.569,0.54,0.854,1.023,0.882c0.825,0.085,1.762-0.54,2.844-1.819l0.085-0.058l0.056,0.114
					c0.058,0.909,0.314,1.478,0.77,1.678c0.455,0.142,0.909,0.057,1.394-0.171c0.284-0.171,0.681-0.455,1.193-0.938
					c0.057-0.028,0.113-0.028,0.143,0.028l0.17,0.54c0.057,0.228,0.171,0.398,0.312,0.513c0.37,0.198,0.824,0.142,1.45-0.143
					c1.394-0.739,2.645-2.246,3.726-4.493l0.084-0.368l-0.625,0.027l-0.938,1.479c-0.427,0.598-0.825,1.024-1.223,1.223
					c-0.172,0.058-0.256,0-0.284-0.085c-0.029-0.143,0.057-0.427,0.255-0.824l3.241-6.512c0.029-0.114,0.029-0.17,0-0.199
					l-1.961-0.028c-0.086,0-0.143,0.028-0.199,0.142l-0.171,0.169c-0.085,0.058-0.171,0.029-0.228-0.028l-0.227-0.142
					c-0.797-0.37-1.678-0.142-2.674,0.625c-0.824,0.711-1.706,1.792-2.559,3.185c-1.08,1.734-1.85,2.872-2.275,3.384
					c-0.369,0.37-0.652,0.512-0.88,0.398c-0.144-0.058-0.2-0.199-0.2-0.37c0.028-0.654,0.2-1.535,0.541-2.644l0.17-0.512
					c0.086-0.2,0.17-0.342,0.285-0.455l1.309-1.081c1.704-1.563,3.298-3.412,4.775-5.487l0.312-0.626h-0.056
					c-0.455,0.029-0.74,0.086-0.854,0.142c-1.507,2.076-2.872,3.696-4.123,4.805c-0.37,0.312-0.598,0.455-0.655,0.455
					c-0.027-0.028-0.056-0.058-0.056-0.113c0.142-0.398,0.54-1.223,1.138-2.502c1.507-2.928,2.985-5.231,4.378-6.853
					c0.654-0.767,1.223-1.223,1.649-1.421c0.198-0.028,0.341,0,0.398,0.057c0.027,0.028,0.027,0.17,0.027,0.426l-0.228,0.853
					c0,0.028,0,0.028,0.029,0.028C150.198-11.485,150.509-11.684,150.538-11.912L150.538-11.912z M145.193,2.447
					c0.853-2.104,1.763-3.582,2.673-4.492l0.455-0.397c0.199-0.114,0.369-0.143,0.568-0.058c0.085,0.058,0.114,0.199,0.058,0.455
					c-0.825,2.048-1.649,3.668-2.417,4.891c-0.484,0.654-0.854,1.052-1.11,1.193c-0.17,0.058-0.284,0.058-0.368-0.056
					c-0.114-0.114-0.143-0.342-0.114-0.739L145.193,2.447L145.193,2.447z M137.088-2.586c0.144,0.028,0.285,0.17,0.371,0.397
					c0.113,0.569-0.029,1.28-0.398,2.105c-0.085,0.113-0.17,0.113-0.341,0.027c-0.569-0.199-0.853-0.568-0.911-1.108
					c0.059-0.626,0.285-1.052,0.74-1.365C136.747-2.614,136.918-2.642,137.088-2.586L137.088-2.586z M134.871-0.197
					c0.028-0.029,0.113,0,0.199,0c0.397,0.511,0.854,0.881,1.364,1.108c0.114,0.058,0.114,0.171,0.028,0.342
					c-0.71,1.364-1.393,2.303-2.019,2.785c-0.256,0.114-0.454,0.114-0.597,0.086c-0.285-0.113-0.426-0.312-0.426-0.653
					c0-0.513,0.199-1.223,0.597-2.134C134.36,0.627,134.615,0.115,134.871-0.197L134.871-0.197z"/>
				<path fill-rule="evenodd" clip-rule="evenodd" fill="#FFFFFF" d="M154.035-12.992c0.143-0.285,0.199-0.512,0.228-0.683
					c-2.218,2.189-4.351,3.327-6.369,3.354l-0.143,0.086l-1.562,2.218c-0.058,0.142-0.058,0.199,0,0.228l0.71,0.028
					c1.507-0.028,2.957-0.54,4.294-1.592C152.472-10.348,153.409-11.571,154.035-12.992L154.035-12.992z"/>
				<path fill-rule="evenodd" clip-rule="evenodd" fill="#FFFFFF" d="M135.951-11.713c0.029-0.312,0.086-0.455,0.113-0.483
					c1.338-0.228,2.73,0.171,4.209,1.166l2.588,1.763c0.085,0.057,0.17,0.057,0.199,0l1.534-1.905c0.144-0.113,0.144-0.199,0-0.256
					c-1.534-0.967-2.529-1.563-2.956-1.791c-0.853-0.398-1.849-0.598-2.986-0.569c-1.051,0.057-2.047,0.284-2.985,0.654
					c-0.113,0.029-0.228,0-0.368-0.113c-0.456-0.399-1.082-0.541-1.935-0.427c-2.075,0.369-4.208,1.649-6.369,3.838
					c-1.678,1.678-3.156,3.867-4.464,6.597l-0.625,1.449c-0.967,2.814-1.081,4.976-0.37,6.454c0.484,1.053,1.279,1.593,2.417,1.706
					c2.218,0.171,4.208-1.109,5.999-3.924c1.08-1.904,1.536-3.497,1.365-4.833c-0.114-0.711-0.455-1.166-1.023-1.308
					c-1.081-0.256-2.161,0.255-3.241,1.506c-1.195,1.621-1.735,3.299-1.678,5.033l0.057,0.085c0.512-0.597,1.08-1.08,1.678-1.535
					l0.967-0.626c0.142-1.193,0.512-2.132,1.108-2.814c0.427-0.427,0.768-0.597,1.052-0.455c0.228,0.142,0.342,0.398,0.369,0.711
					l-0.084,0.882c-0.369,1.706-1.223,3.241-2.559,4.606c-1.252,1.051-2.305,1.364-3.128,0.938c-0.881-0.625-1.08-2.019-0.568-4.179
					c0.966-3.271,2.672-6.37,5.118-9.355c1.792-2.019,3.271-3.213,4.464-3.639l0.427,0.028c0.058,0.057,0.028,0.085-0.028,0.114
					c-1.194,0.91-2.104,1.934-2.729,3.042c-0.854,1.621-1.023,2.844-0.484,3.668c0.285,0.398,0.683,0.54,1.167,0.426
					c0.795-0.227,1.592-0.938,2.416-2.16C135.554-8.927,135.981-10.348,135.951-11.713L135.951-11.713z M134.758-11.4
					c0.057-0.085,0.17-0.113,0.284-0.113c0.028,0.057,0.058,0.312,0.058,0.796c-0.2,1.62-0.883,3.099-2.105,4.407
					c-0.482,0.37-0.881,0.512-1.137,0.455c-0.229-0.085-0.341-0.255-0.369-0.54c0.028-0.825,0.426-1.792,1.137-2.901
					C133.251-10.206,133.961-10.917,134.758-11.4L134.758-11.4z"/>
				<path fill-rule="evenodd" clip-rule="evenodd" fill="#FFFFFF" d="M112.182-8.045c-0.171-0.341-0.483-0.54-0.882-0.597
					c-0.853-0.085-1.677,0.199-2.501,0.853c-0.256,0.227-0.91,0.881-1.934,2.019c-0.625,0.568-1.251,0.881-1.961,0.881
					c-0.028,0-0.057-0.028-0.114-0.114c0.512-1.592,0.427-2.729-0.199-3.354c-0.426-0.342-0.938-0.427-1.534-0.285
					c-1.593,0.483-3.071,1.99-4.437,4.492c-0.511,1.052-0.853,2.047-1.023,2.958c-0.114,1.165,0.142,1.99,0.796,2.445
					c0.683,0.427,1.506,0.312,2.416-0.342c1.081-0.854,2.247-2.389,3.441-4.635l0.142-0.17l1.166-0.114
					c0.056,0,0.084,0.057,0.084,0.142c-0.455,1.052-0.739,1.819-0.824,2.359c-0.171,0.967-0.029,1.735,0.455,2.36
					c0.455,0.482,1.024,0.682,1.707,0.626c1.166-0.228,2.417-1.023,3.782-2.332c0.057-0.057,0.114-0.057,0.142,0l-0.028,0.882
					c0,0.369,0.057,0.653,0.17,0.853c0.142,0.312,0.397,0.512,0.739,0.598c0.71,0.085,1.536-0.312,2.502-1.167
					c0.028-0.027,0.084,0,0.142,0.029c0.142,0.568,0.284,0.91,0.427,1.023c0.142,0.114,0.427,0.17,0.824,0.143
					c1.251-0.313,2.531-1.479,3.838-3.497c0.569-1.052,0.854-1.621,0.882-1.65l-0.569-0.085c-0.113,0-0.256,0.085-0.398,0.256
					c-0.199,0.398-0.455,0.854-0.768,1.308c-0.569,0.683-0.967,1.109-1.25,1.252c-0.142,0.057-0.228,0.028-0.256-0.058l0.028-0.256
					l3.611-7.335l-0.057-0.057l-1.905-0.057c-0.085,0-0.256,0.114-0.512,0.37c-0.057,0.028-0.143,0-0.199-0.057l-0.199-0.115
					c-0.711-0.369-1.535-0.227-2.474,0.398c-0.825,0.626-1.706,1.564-2.53,2.844c-1.194,1.79-1.905,2.843-2.161,3.127
					c-0.91,0.995-1.763,1.62-2.474,1.905c-0.341,0.085-0.626,0-0.824-0.285c-0.17-0.255-0.17-0.739-0.028-1.421
					c0.37-1.194,0.909-2.36,1.62-3.44c0.825-1.195,1.507-1.934,2.133-2.162c0.17,0,0.312,0.058,0.398,0.142
					c0.028,0.171,0,0.257-0.143,0.285l-0.369,0.113c-0.683,0.483-0.967,1.052-0.825,1.706c0.058,0.171,0.171,0.285,0.341,0.342
					c0.285,0.085,0.597-0.029,0.938-0.312C112.409-6.253,112.637-7.163,112.182-8.045L112.182-8.045z M117.527-7.163
					c0.114,0.085,0.143,0.142,0.17,0.199c-0.028,0.171-0.113,0.512-0.341,1.081c-0.853,1.876-1.763,3.468-2.673,4.776
					c-0.37,0.397-0.654,0.598-0.853,0.598l-0.256-0.2c-0.057-0.227,0-0.653,0.199-1.336l0.284-0.711
					c0.996-2.103,2.019-3.525,3.014-4.293C117.272-7.135,117.442-7.163,117.527-7.163L117.527-7.163z M101.15-4.235l0.455-0.739
					l0.199-0.171l0.057,0.029c0.455,0.483,0.938,0.853,1.507,1.08c0.028,0.057,0.028,0.171-0.057,0.313
					c-0.654,1.28-1.336,2.218-2.076,2.844c-0.256,0.143-0.483,0.228-0.654,0.17c-0.199-0.056-0.341-0.227-0.398-0.512
					C100.183-1.96,100.525-2.956,101.15-4.235L101.15-4.235z M103.424-7.448c0.171-0.085,0.341-0.085,0.541,0
					c0.312,0.255,0.426,0.71,0.284,1.393c-0.114,0.37-0.228,0.711-0.37,0.995c-0.028,0.057-0.142,0.057-0.369,0.029
					c-0.569-0.228-0.882-0.597-0.938-1.08C102.572-6.709,102.856-7.163,103.424-7.448L103.424-7.448z"/>
				<path fill-rule="evenodd" clip-rule="evenodd" fill="#FFFFFF" d="M120.825-6.253c0.142,0,0.825,0,2.019,0
					c0.171,0,0.341-0.142,0.455-0.342l0.91-1.934l-0.057-0.056l-1.621-0.029c-0.37,0.029-0.568,0.085-0.654,0.199l-1.024,1.906
					C120.825-6.395,120.825-6.31,120.825-6.253L120.825-6.253z"/>
				<path fill-rule="evenodd" clip-rule="evenodd" fill="#FFFFFF" d="M96.942-10.206c-1.393,1.394-2.587,3.014-3.583,4.862
					c-0.512,0.938-0.881,1.762-1.136,2.473c-0.541,1.365-0.769,2.73-0.683,4.124c0.084,1.62,0.568,2.899,1.507,3.81
					c0.966,1.109,2.672,1.536,5.033,1.308c0.683-0.085,2.417-0.512,5.175-1.251c2.104-0.568,3.896-0.768,5.374-0.597
					c1.365,0.256,2.36,0.909,3.014,1.933l0.114,0.029c1.678-0.796,4.18-0.768,7.478,0.143c0.057,0,0.057,0,0.057-0.058
					c-0.825-1.251-2.275-2.331-4.265-3.185c-2.531-0.994-5.459-1.052-8.786-0.085l-4.379,1.308
					c-1.166,0.313-2.075,0.512-2.644,0.568c-1.081,0.085-1.962-0.057-2.701-0.427c-1.394-0.767-2.02-2.132-1.877-4.122
					c0.228-1.876,0.967-3.981,2.246-6.341c1.649-2.729,3.327-4.777,5.033-6.142c0.825-0.568,1.45-0.824,1.848-0.767
					c0.143,0.028,0.256,0.113,0.37,0.284c0.058,0.17,0.028,0.256-0.028,0.313c-0.342,0.057-0.654,0.199-0.939,0.512
					c-0.255,0.255-0.426,0.54-0.483,0.881c-0.085,0.427-0.029,0.711,0.142,0.882c0.143,0.114,0.284,0.198,0.427,0.198
					c0.881-0.142,1.393-0.768,1.649-1.961c0.17-0.853,0-1.479-0.512-1.848c-0.483-0.37-1.308-0.427-2.445-0.114
					C100.211-12.935,98.563-11.826,96.942-10.206L96.942-10.206z"/>
			</g>
		</g>
	</g>
	<path fill="#FFFFFF" d="M162.307-11.015L162.307-11.015c-0.008-0.001-0.016,0-0.023,0s-0.016,0-0.023,0v0.001
		c-4.803,0.025-8.688,3.926-8.688,8.733c0,2.764,1.284,5.227,3.286,6.828c0.097,0.077,0.29,0.236,0.486,0.255
		c0.247,0.024,0.416-0.11,0.491-0.184c1.122-1.108,2.746-1.795,4.447-1.801c1.701,0.006,3.325,0.693,4.447,1.801
		c0.074,0.074,0.244,0.208,0.491,0.184c0.196-0.019,0.39-0.178,0.486-0.255c2.002-1.601,3.286-4.064,3.286-6.828
		C170.994-7.089,167.11-10.99,162.307-11.015z M161.311,0.879c0,0.197-0.047,0.346-0.141,0.447
		c-0.093,0.101-0.212,0.151-0.356,0.151s-0.262-0.052-0.352-0.155s-0.135-0.251-0.135-0.443v-4.583c0-0.194,0.045-0.341,0.135-0.439
		c0.09-0.098,0.207-0.148,0.352-0.148s0.264,0.05,0.356,0.148c0.094,0.099,0.141,0.235,0.141,0.411V0.879z M161.219-5.238
		c-0.11,0.099-0.242,0.147-0.394,0.147c-0.157,0-0.292-0.048-0.404-0.145c-0.111-0.097-0.167-0.233-0.167-0.41
		c0-0.16,0.057-0.292,0.172-0.396c0.114-0.104,0.247-0.155,0.399-0.155c0.146,0,0.276,0.047,0.39,0.141s0.169,0.23,0.169,0.41
		C161.384-5.471,161.329-5.335,161.219-5.238z M164.708-3.526c-0.083,0.079-0.199,0.119-0.349,0.119h-0.476v4.332
		c0,0.197-0.047,0.346-0.141,0.447c-0.094,0.101-0.213,0.151-0.356,0.151c-0.145,0-0.261-0.051-0.352-0.155
		c-0.09-0.103-0.135-0.25-0.135-0.443v-4.332h-0.354c-0.167,0-0.294-0.04-0.379-0.119c-0.086-0.08-0.129-0.181-0.129-0.303
		c0-0.123,0.044-0.222,0.132-0.298s0.213-0.115,0.376-0.115h0.354v-1.381c0-0.195,0.045-0.341,0.135-0.439
		c0.091-0.099,0.207-0.147,0.352-0.147c0.144,0,0.263,0.049,0.356,0.147s0.141,0.235,0.141,0.411v1.41h0.452
		c0.165,0,0.289,0.038,0.372,0.115c0.084,0.077,0.126,0.176,0.126,0.298C164.834-3.706,164.792-3.605,164.708-3.526z"/>
</g>
</svg>
